<svg xmlns="http://www.w3.org/2000/svg" width="481.077" height="700.971"><defs><style>.cls-1{fill:#fafafa;stroke:#a7a7a7}</style></defs><g id="map" transform="translate(-249.038 -106.15)"><path class="cls-1" id="경기도" d="M494.995 287.954l-.607-5.464-12.752-2.833-1.417-3.846-13.561-4.251-6.291-29.284 10.885-7.336-.988-8.3-15.751-8.516-5.781-12.624-10.272-.988-9.285-5.73-12.446 2.766-7.112-14.223-7.519-3.343-5.759 8.463.532 6.377-8.588 4.216-2.536 9.7-8.653 9.4-11.041 4.326-.894 12.536-5.968 13.576-10.375.15-2.149 19.874 10.382 4.463 12.288 2.779 7.143 10.733-.922 10.223-5.866 13.991 8.495 5.24-.451 4.791-10.107-1.81-3.275 2.932 2.744 5.408-3.432 1.79 1.79 8.653 6.862.6 1.755 2.833-.955 7.809 3.378 2.934 7.378-2.616 4.408 1.72-.895 7.162-7.012 2.088 9.474 12.215 14.064-3.166 14.573-5.465 14.168 9.917 5.667-4.452 15.18-16.395h11.537l4.453-6.073 10.323-8.7 8.905-15.383.4-16.192 3.239-10.12-4.726-8.1zm-84.219 7.787l-7.844-.713-11.41 2.852-7.987-8.415-6.135-8.565 1.57-5.558 8.272 2.567 2.139-5.419 7.417.285 3.852-10.7 8.272-.285 4.279 11.267-1.569 7.84 8.557 2z" transform="translate(-25.848 -22.537)"/><path class="cls-1" id="패스_5495" d="M418.846 287.356l-4.279-11.267-8.272.285-3.851 10.7-7.417-.285-2.139 5.42-8.272-2.567-1.57 5.558 6.134 8.561 7.987 8.415 11.41-2.853 7.844.713 9.413-12.836-8.557-2z" transform="translate(-31.356 -36.658)"/><path class="cls-1" id="패스_5496" d="M358.956 294.155l3.032 11.585 3.542 5.8-1.992 7.89 8.062 12.456 5.865-13.991.921-10.223-7.143-10.733z" transform="translate(-27.65 -39.441)"/><path class="cls-1" id="패스_5497" d="M516.633 331.695l2.2-11.315 6.6-2.829 9.744 8.172 12.887-5.972 11.63 4.086 2.829 7.858h8.8l7.23 5.972h8.8l24.2 10.373 5.344-5.658-2.829-5.343 5.343-5.029 10.372 7.858 17.916 1.886 5.343-4.715 10.058 3.143 9.744-5.972 8.932-6.871-2.353-13.179-10.909-19.115L654.4 280.2v-9.71l-9.715-9.31v-7.286l-46.146-57.48-9.31-28.335-24.4-48.818-3.979 1.4-1.7 24.6-5.52 1.044-1.94 8.056-6.714 1.79-6.416 7.012-14.621.746-14.77.3-11.349-3.139h-17.9l-7.459 3.431-4.774-1.194-13.427-1.492-7.012 3.133-5.52-2.835-17.303 2.687-2.984 4.177-7.609 2.685-1.551 2.279 7.518 3.343 7.112 14.224 12.446-2.766 9.285 5.729 10.272.988 5.783 12.622 15.75 8.516.988 8.3-10.884 7.337 6.29 29.284 13.561 4.25 1.417 3.846 12.751 2.833.607 5.465-7.357 4.453 4.726 8.1-3.238 10.12-.4 16.192-3.648 6.3 5.977 8.622z" transform="translate(-35.675 -12.492)"/><path class="cls-1" id="패스_5498" d="M374.315 524.621l8.266-6.337 17.082.551 3.582 5.786 11.572 2.48 14.052-4.133 10.746 17.358 15.429 1.653 11.573-8.266-6.062-9.368 1.1-12.95-10.746-6.062-7.439 6.888h-11.018l-11.3-12.674 2.48-17.634 11.572-15.43-13.226-18.736 8.542-17.909 7.99 2.755 1.653-5.786-15.341-16.935-14.168-9.918-14.573 5.465-14.064 3.166-4.551 8.075 1.464 8.414-4.243 6.855-3.934-.8-.448-12.234v-11.04l-4.177-7.161-5.669-.9-4.327-2.238-3.355 8.79-3.9-.319-1.841-7.576-6.242-7.932-5.7 4.434 3.289 5.587-5.52 8.5 1.343 6.564-2.686 1.94-2.835-5.371.433-10.133-4.625.448-8.442 11.424-3.479 9-16.36 2.709 2.634 12.956 11.04-1.194 6.564-6.266 4.177 5.669-.5 7.654 3.893.05 1.98-11.866 7.161.3v10.145l5.518 6.151-.717 3.506-8.083.488-.3 5.073 7.107 3.443v2.311l-5.465 4.839 5.147 10.139 8.366 3.506.213 5.3-9.25 1.79v3.285l8.205 1.79.035 3.451-9.083 8.366.694 11.755 14.173 5.52-.844 10.371 3.665 9.026 22.325-10.567z" transform="translate(-18.018 -54.228)"/><path class="cls-1" id="패스_5525" d="M435.207 466.484l-13.226-18.736 8.542-17.909 7.99 2.755 1.653-5.786-15.341-16.935-13.012 5.106-3.951 28.206z" transform="translate(-18.018 -54.228)"/><path class="cls-1" id="패스_5499" d="M471.76 486.625l-13.6-6.189-11.572 15.43-2.48 17.634 11.3 12.674h11.021l7.439-6.888 5.247-23.365z" transform="translate(-40.765 -68.14)"/><path class="cls-1" id="패스_5500" d="M530.381 512.532l6.022-5.983-1-10.075-9.207 2.007-10.531-5.018 2.007-14.385 2.342-20.407-7.695-2.342-2.048-6.356 8.4-13.047 11.709-6.022 4.014-6.022 28.436-13.716 4.684 8.7 13.716-5.687-1.338-11.709 15.389-17.613 8.583-5.87-11.421-4.895h-8.8l-7.23-5.972h-8.8l-2.829-7.858-11.63-4.086-12.887 5.972-9.744-8.172-6.6 2.829-2.2 11.315h-15.4l-5.977-8.622-5.257 9.081-10.322 8.7-4.453 6.072h-11.538L453.6 399.747l-5.667 4.453 15.341 16.935-1.653 5.786-7.99-2.755-8.542 17.909 13.226 18.736 13.6 6.189 7.35 9.3-5.247 23.365 10.746 6.062-1.1 12.95 6.062 9.368L518 532.6z" transform="translate(-40.837 -48.589)"/><path class="cls-1" id="패스_5502" d="M617.243 620.281l-1.385-11.776 5.958-2.505 6.078 2.852 6.32-.693 3.279-9.5 8.621-11.918-3.933-9.058 4.333-8.04-12.2-6.8-12.223 7.076-7.475 6.722-7.7.3-6.645 9.053 4.849 10.044-5.2 24.244 3.81 5.2z" transform="translate(-64.761 -80.823)"/><path class="cls-1" id="패스_5503" d="M729.353 650.186l11.807-13.808 1.166-14.257-22.477-3.521-11.776-6.312-14.2 15.664-6.339-1.3v14.978l11.006 4.815 9.287 9.286 16.593 15.139 4.857-3z" transform="translate(-78.156 -88.444)"/><path class="cls-1" id="패스_5504" d="M706.935 667.183l-7.685 12.207-18.573 11.345-19.605 13.758 2.426 7.8.207 3.629 10.523-2.476-1.192-3.33 6.1-3.929 1.961 1.57-2.158 6.866 2.943 3.923 14.073-6.708 2.694-6.907 8.813-3.422 8.087-19.181 4.767-2.941z" transform="translate(-74.166 -96.907)"/><path class="cls-1" id="패스_5505" d="M676.481 651.866l-9.287-9.286-11.007-4.815v-14.977l-7.169-1.471-7.619 7.273-14.893.346-19.742.346-7.273-5.2-13.507 5.2-3.81-5.2-22.166-2.078 1.732-13.586-8.312-14.815-12.122 1.039-15.239-7.273-18.393 3.406-16.195 17.832-5.944 26.193 12.437 20-8.6 15.985v16.165l19.816 16.85 1.57 17 13.9 2.132 4.8-6.021 9.027-.437V712l2.859-7 5.021-2.545 1.036 2.629-2.789 4.462-.17 14.172 15.069 7.107 3.568-6.627 4.419-.1 2.69 4.323 4.241-1.448 1.063-4.727 3.38.681 1.606 7.381 5.959.084 2.324-5.915-3.105-3.523 4.044-5.391 6.279-.771-1.2-5.865-8.415 1.549-1.564 4.324-3.139-1.569 1.288-5.7 8.81-2.476 1.223-5.486 10.062.907 7.6 6.8 2.4-3.553-6.078-5.992.051-5.283-4.977-2.9 4.337-6.92 3.439 1.425-1.762 4.666 17.833 11.923 10.369-.726-2.426-7.8 19.605-13.758 18.573-11.345 7.685-12.207z" transform="translate(-47.009 -84.525)"/><path class="cls-1" id="패스_5506" d="M340.746 661.639l13.758-1.715 10.663-7.9v-10.678l11.35-4.127 11.006 14.8 13.758-1.388 3.783 13.07h35.083l8.943-7.911 15.822 7.911 8.6-15.985-12.437-20 5.944-26.188 16.192-17.828 18.389-3.4-1.786-18.551-28.284-4.564-11.573 8.266-15.429-1.653-10.746-17.358-14.052 4.133-11.572-2.48-3.582-5.786-17.082-.551-8.266 6.337.551 7.99-22.325 10.567-5.879 7.7 8.668 7.576 4.621-4.223 10.3-1.476-2.129 5.462-8.044 1.854-2.751 3.961 8.636 4.811-.931 5.589-14.9 3.061-21.956 14.371 4.391 8.649 3.194-2.795h13.307l4.871 3.686-.879 5.1-5.456-2.129-16.5 3.593-8.117 10.16 9.75 4.566z" transform="translate(-22.935 -77.525)"/><path class="cls-1" id="패스_5507" d="M482.823 714.258L463.008 697.4v-16.161l-15.822-7.911-8.942 7.911h-35.083l-3.783-13.07-13.759 1.388-11.005-14.8-11.351 4.128v10.674l-10.662 7.9-13.758 1.714-3.1-15.478-9.743-4.563.4 11.075-10.756 13.7 1.969 13.625 11.044 15.7-6.564 16.968-.493 29.744 16.906 12.722-3.239 16.342-5.391 6.959-.441 8.553 3.653 3.282-.079 4.541-2.067 4.64 4.1 3.639-.278 6.7 9.593-2.309.787-8.872 6.91-7.383 10.415-6.051-.137-8.689 2.789-8.366h4.142l-.8 9.162.786 9.747 13.05 3.559 1.975-9.166 6.788-10.934 6.96-7.308 13.721-6.292 3.855-5.31-1.725-3.963 6.733-4.041 3.59 2.561 16.424-4.855.738-4.455-5.053-1.336.838-3.543 11.937.882 12.762-11.4 7.489.8 15.062-8.5zm-89.637-1.719h-8.756l-12.568 6.878-2.751-5.847-14.446-3.783-1.376-11.007 10.662-7.842 8.255 2.684 4.815-5.5h7.409l4.286 11.35 5.847 2.063z" transform="translate(-21.033 -94.734)"/><path class="cls-1" id="패스_5508" d="M391.345 694.247h-7.408l-4.815 5.5-8.255-2.684-10.667 7.846 1.376 11.006 14.446 3.783 2.751 5.847 12.568-6.879h8.759l1.376-11.006-5.847-2.064z" transform="translate(-27.837 -101.096)"/><path class="cls-1" id="패스_5509" d="M418.544 891.071l-32.915 1.611-15.652 7.826H356.4l-16.573 20.485 11.273 17.033h11.739l7.366-6.445 18.644.69 13.81-5.294 17.493-6.445 9.9-16.572z" transform="translate(-24.786 -131.406)"/><path class="cls-1" id="패스_5501" d="M722.619 558.073l.726-12.857 5.288-17.522-6-2.068-6.758 7.563-6.6 2.526-7.362-7.635 3-5.453V510.9l-2.727-5.181.274-20.719 4.635-3.272 3.272-22.632-4.908-7.635v-8.453l6.48-8.725v-14.659l-4.562-10.844-3.013-21.47.378-11.084-5.352-7.6-.546-3.06-8.932 6.871-9.744 5.972-10.058-3.149-5.343 4.715-17.916-1.886-10.372-7.858-5.343 5.029 2.829 5.343-5.344 5.658-12.782-5.478-8.582 5.87-15.389 17.613 1.338 11.709-13.716 5.687-4.684-8.7-28.436 13.718-4.015 6.022-11.709 6.022-8.4 13.047 2.048 6.356 7.695 2.342-2.342 20.407-2.007 14.385 10.531 5.018 9.207-2.007 1 10.075-6.022 5.983-12.379 20.07 1.786 18.551L547 560.227l12.122-1.039L567.436 574l-1.736 13.588 22.166 2.078 5.2-24.244-4.849-10.044 6.645-9.053 7.7-.3 7.475-6.722 12.223-7.076 12.2 6.8-4.333 8.04 3.933 9.058-8.621 11.918-3.279 9.5-6.32.693-6.078-2.852-5.958 2.506 1.385 11.776 7.273 5.2 19.742-.346 14.893-.346 7.619-7.273 13.507 2.771 14.2-15.672 11.776 6.312 22.477 3.517L718 567.617z" transform="translate(-52.505 -50.334)"/></g></svg>